# xmcd
#
# Track frame offsets: 
#        150
#        15081
#        30431
#        45850
#        56760
#        75563
#        86946
#        98096
#        109458
#        121692
#        145343
#        158644
#        172183
#        185930
#        197926
#        210100
#
# Disc length: 2927 seconds
#
# Revision: 1
# Processed by: cddbd v1.5.2PL0 Copyright (c) Steve Scherf et al.
# Submitted via: ExactAudioCopy v1.0b1
#
DISCID=cd0b6d10
DTITLE=The Carter Brothers - Blues On Tour
DYEAR=1965
DGENRE=
TTITLE0=Do The Flo Show
TTITLE1=Southern Country Boy
TTITLE2=Booze In The Bottle
TTITLE3=Stop Talkin In Your Sleep
TTITLE4=I've Been Mistreated For Five Long Years
TTITLE5=I Don't Care
TTITLE6=Booby Trap Baby
TTITLE7=She's So Fine So Glad She's Mine
TTITLE8=Don't Pity Me
TTITLE9=Blues Ont Tour
TTITLE10=Why Baby Why Part1
TTITLE11=Why Baby Why Part2
TTITLE12=Queen Bee
TTITLE13=There's Trouble Brewing
TTITLE14=What You Say Bug Mama
TTITLE15=Roast Possum
EXTD=
EXTT0=
EXTT1=
EXTT2=
EXTT3=
EXTT4=
EXTT5=
EXTT6=
EXTT7=
EXTT8=
EXTT9=
EXTT10=
EXTT11=
EXTT12=
EXTT13=
EXTT14=
EXTT15=
PLAYORDER=
